<svg xmlns="http://www.w3.org/2000/svg" xmlns:xlink="http://www.w3.org/1999/xlink" width="500" zoomAndPan="magnify" viewBox="0 0 375 374.999991" height="500" preserveAspectRatio="xMidYMid meet" version="1.0"><defs><g/><clipPath id="86015552e1"><path d="M 43.902344 43.902344 L 331.152344 43.902344 L 331.152344 331.152344 L 43.902344 331.152344 Z M 43.902344 43.902344 " clip-rule="nonzero"/></clipPath><clipPath id="9672608e15"><path d="M 59.355469 59.355469 L 315.644531 59.355469 L 315.644531 315.644531 L 59.355469 315.644531 Z M 59.355469 59.355469 " clip-rule="nonzero"/></clipPath><clipPath id="da25b0fc2a"><path d="M 187.5 59.355469 C 116.730469 59.355469 59.355469 116.730469 59.355469 187.5 C 59.355469 258.269531 116.730469 315.644531 187.5 315.644531 C 258.269531 315.644531 315.644531 258.269531 315.644531 187.5 C 315.644531 116.730469 258.269531 59.355469 187.5 59.355469 Z M 187.5 59.355469 " clip-rule="nonzero"/></clipPath><clipPath id="047a666b72"><path d="M 59.355469 59.355469 L 315.632812 59.355469 L 315.632812 315.632812 L 59.355469 315.632812 Z M 59.355469 59.355469 " clip-rule="nonzero"/></clipPath><clipPath id="6a30f8efcb"><path d="M 187.496094 59.355469 C 116.726562 59.355469 59.355469 116.726562 59.355469 187.496094 C 59.355469 258.265625 116.726562 315.632812 187.496094 315.632812 C 258.265625 315.632812 315.632812 258.265625 315.632812 187.496094 C 315.632812 116.726562 258.265625 59.355469 187.496094 59.355469 Z M 187.496094 59.355469 " clip-rule="nonzero"/></clipPath><clipPath id="45dfd29292"><path d="M 72.816406 189.582031 L 86.921875 189.582031 L 86.921875 203.6875 L 72.816406 203.6875 Z M 72.816406 189.582031 " clip-rule="nonzero"/></clipPath><clipPath id="ce40452704"><path d="M 79.867188 189.582031 C 75.972656 189.582031 72.816406 192.738281 72.816406 196.632812 C 72.816406 200.527344 75.972656 203.6875 79.867188 203.6875 C 83.761719 203.6875 86.921875 200.527344 86.921875 196.632812 C 86.921875 192.738281 83.761719 189.582031 79.867188 189.582031 Z M 79.867188 189.582031 " clip-rule="nonzero"/></clipPath><clipPath id="0a1aca14ec"><path d="M 131 131.515625 L 246.730469 131.515625 L 246.730469 243 L 131 243 Z M 131 131.515625 " clip-rule="nonzero"/></clipPath><clipPath id="050820d7fa"><path d="M 178.722656 206.402344 L 201.441406 206.402344 L 201.441406 239.59375 L 178.722656 239.59375 Z M 178.722656 206.402344 " clip-rule="nonzero"/></clipPath><clipPath id="30119d3cd7"><path d="M 186.296875 207.058594 C 187.460938 206.664062 188.785156 206.402344 190.085938 206.402344 C 191.386719 206.402344 192.636719 206.625 193.789062 207.023438 C 193.8125 207.035156 193.839844 207.035156 193.863281 207.046875 C 198.191406 208.628906 201.378906 212.8125 201.441406 217.816406 L 201.441406 239.53125 L 178.722656 239.53125 L 178.722656 217.835938 C 178.78125 212.789062 181.921875 208.605469 186.296875 207.058594 Z M 186.296875 207.058594 " clip-rule="nonzero"/></clipPath><clipPath id="e3c64b8c88"><path d="M 193.339844 224.613281 L 197.472656 224.613281 L 197.472656 228.75 L 193.339844 228.75 Z M 193.339844 224.613281 " clip-rule="nonzero"/></clipPath><clipPath id="2c9d7c0ba4"><path d="M 195.40625 224.613281 C 194.265625 224.613281 193.339844 225.539062 193.339844 226.679688 C 193.339844 227.824219 194.265625 228.75 195.40625 228.75 C 196.546875 228.75 197.472656 227.824219 197.472656 226.679688 C 197.472656 225.539062 196.546875 224.613281 195.40625 224.613281 Z M 195.40625 224.613281 " clip-rule="nonzero"/></clipPath><clipPath id="cd44004e0f"><path d="M 288.078125 189.582031 L 302.183594 189.582031 L 302.183594 203.6875 L 288.078125 203.6875 Z M 288.078125 189.582031 " clip-rule="nonzero"/></clipPath><clipPath id="952b3364f6"><path d="M 295.132812 189.582031 C 291.238281 189.582031 288.078125 192.738281 288.078125 196.632812 C 288.078125 200.527344 291.238281 203.6875 295.132812 203.6875 C 299.027344 203.6875 302.183594 200.527344 302.183594 196.632812 C 302.183594 192.738281 299.027344 189.582031 295.132812 189.582031 Z M 295.132812 189.582031 " clip-rule="nonzero"/></clipPath></defs><g clip-path="url(#86015552e1)"><path fill="#fffef5" d="M 296.691406 89.449219 C 291.074219 79.726562 280.890625 74.285156 270.414062 74.277344 L 270.414062 74.273438 C 259.9375 74.265625 249.75 68.824219 244.136719 59.101562 C 235.757812 44.585938 217.203125 39.617188 202.691406 47.996094 L 202.6875 47.996094 L 202.6875 47.988281 C 193.675781 53.179688 182.234375 53.59375 172.550781 48.101562 C 168.039062 45.445312 162.785156 43.917969 157.171875 43.917969 C 145.941406 43.917969 136.136719 50.019531 130.890625 59.089844 L 130.890625 59.085938 C 125.644531 68.15625 115.839844 74.257812 104.609375 74.257812 C 87.851562 74.257812 74.269531 87.839844 74.269531 104.597656 L 74.269531 104.601562 L 74.261719 104.597656 C 74.25 114.996094 68.890625 125.101562 59.308594 130.742188 C 54.746094 133.320312 50.792969 137.113281 47.980469 141.976562 C 42.367188 151.703125 42.75 163.246094 47.980469 172.324219 L 47.976562 172.324219 C 53.207031 181.398438 53.585938 192.941406 47.972656 202.664062 C 39.59375 217.175781 44.566406 235.730469 59.078125 244.113281 L 59.082031 244.113281 L 59.074219 244.117188 C 68.144531 249.363281 74.242188 259.167969 74.242188 270.398438 C 74.242188 287.15625 87.824219 300.738281 104.582031 300.738281 C 115.8125 300.738281 125.613281 306.839844 130.863281 315.90625 C 136.109375 324.972656 145.914062 331.078125 157.144531 331.078125 C 162.757812 331.078125 168.011719 329.550781 172.523438 326.894531 C 182.203125 321.402344 193.644531 321.816406 202.660156 327.011719 L 202.660156 327 L 202.660156 327.003906 C 217.175781 335.378906 235.730469 330.40625 244.109375 315.894531 C 249.726562 306.171875 259.910156 300.730469 270.386719 300.722656 L 270.382812 300.71875 C 280.859375 300.710938 291.046875 295.269531 296.660156 285.546875 C 299.421875 280.757812 300.734375 275.53125 300.730469 270.371094 L 300.734375 270.375 C 300.742188 260.269531 305.808594 250.433594 314.894531 244.710938 C 319.792969 242.136719 324.042969 238.191406 327.011719 233.042969 C 332.628906 223.316406 332.246094 211.777344 327.015625 202.699219 L 327.019531 202.699219 C 321.789062 193.621094 321.40625 182.082031 327.023438 172.355469 C 335.402344 157.84375 330.429688 139.289062 315.917969 130.910156 L 315.914062 130.90625 L 315.921875 130.902344 C 306.925781 125.699219 300.851562 116.007812 300.753906 104.890625 C 300.808594 99.644531 299.5 94.320312 296.691406 89.449219 " fill-opacity="1" fill-rule="nonzero"/></g><g clip-path="url(#9672608e15)"><g clip-path="url(#da25b0fc2a)"><path fill="#fffef5" d="M 59.355469 59.355469 L 315.644531 59.355469 L 315.644531 315.644531 L 59.355469 315.644531 Z M 59.355469 59.355469 " fill-opacity="1" fill-rule="nonzero"/></g></g><g clip-path="url(#047a666b72)"><g clip-path="url(#6a30f8efcb)"><path stroke-linecap="butt" transform="matrix(0.75, 0, 0, 0.75, 59.35706, 59.357055)" fill="none" stroke-linejoin="miter" d="M 170.852056 -0.0021154 C 76.492675 -0.0021154 -0.0021214 76.492681 -0.0021214 170.852062 C -0.0021214 265.211444 76.492675 341.701032 170.852056 341.701032 C 265.211438 341.701032 341.701026 265.211444 341.701026 170.852062 C 341.701026 76.492681 265.211438 -0.0021154 170.852056 -0.0021154 Z M 170.852056 -0.0021154 " stroke="#000000" stroke-width="96" stroke-opacity="1" stroke-miterlimit="4"/></g></g><g clip-path="url(#45dfd29292)"><g clip-path="url(#ce40452704)"><path fill="#ffffff" d="M 72.816406 189.582031 L 86.921875 189.582031 L 86.921875 203.6875 L 72.816406 203.6875 Z M 72.816406 189.582031 " fill-opacity="1" fill-rule="nonzero"/></g></g><g fill="#ffffff" fill-opacity="1"><g transform="translate(119.368204, 115.322671)"><g><path d="M 1.40625 -10.015625 L 3.75 -7 C 4.394531 -6.175781 4.664062 -5.375 4.5625 -4.59375 C 4.457031 -3.820312 4.046875 -3.15625 3.328125 -2.59375 L 3.3125 -2.59375 C 2.519531 -1.96875 1.726562 -1.691406 0.9375 -1.765625 C 0.144531 -1.847656 -0.570312 -2.300781 -1.21875 -3.125 L -3.859375 -6.515625 C -5.179688 -8.210938 -5.925781 -9.695312 -6.09375 -10.96875 C -6.269531 -12.25 -6.117188 -13.390625 -5.640625 -14.390625 L -6.125 -14.734375 L -6.53125 -14.421875 C -7.257812 -13.847656 -8.015625 -13.628906 -8.796875 -13.765625 C -9.585938 -13.910156 -10.316406 -14.390625 -10.984375 -15.203125 C -11.609375 -15.984375 -11.894531 -16.789062 -11.84375 -17.625 C -11.800781 -18.46875 -11.414062 -19.175781 -10.6875 -19.75 L -4.375 -24.671875 C -2.757812 -25.929688 -1.066406 -26.472656 0.703125 -26.296875 C 2.472656 -26.117188 4.171875 -24.992188 5.796875 -22.921875 C 6.972656 -21.410156 7.628906 -20.019531 7.765625 -18.75 C 7.910156 -17.476562 7.6875 -16.332031 7.09375 -15.3125 C 6.507812 -14.289062 5.71875 -13.390625 4.71875 -12.609375 Z M -2.515625 -14.390625 C -2.234375 -14.035156 -1.984375 -13.851562 -1.765625 -13.84375 C -1.546875 -13.84375 -1.257812 -13.984375 -0.90625 -14.265625 L 1.3125 -16 C 1.976562 -16.519531 2.34375 -17.050781 2.40625 -17.59375 C 2.476562 -18.144531 2.289062 -18.707031 1.84375 -19.28125 C 1.394531 -19.851562 0.894531 -20.175781 0.34375 -20.25 C -0.195312 -20.320312 -0.800781 -20.097656 -1.46875 -19.578125 L -3.6875 -17.84375 C -4.039062 -17.5625 -4.25 -17.320312 -4.3125 -17.125 C -4.375 -16.925781 -4.257812 -16.640625 -3.96875 -16.265625 Z M -2.515625 -14.390625 "/></g></g></g><g fill="#ffffff" fill-opacity="1"><g transform="translate(134.862826, 103.313963)"><g><path d="M 7.453125 -3.84375 C 6.578125 -3.394531 5.691406 -3.046875 4.796875 -2.796875 C 3.910156 -2.554688 3.046875 -2.507812 2.203125 -2.65625 C 1.367188 -2.8125 0.554688 -3.238281 -0.234375 -3.9375 C -1.035156 -4.644531 -1.800781 -5.710938 -2.53125 -7.140625 C -3.175781 -8.429688 -3.554688 -9.617188 -3.671875 -10.703125 C -3.796875 -11.796875 -3.753906 -12.738281 -3.546875 -13.53125 C -3.347656 -14.320312 -3.078125 -14.878906 -2.734375 -15.203125 L -3.140625 -15.65625 L -3.609375 -15.421875 C -4.429688 -15.003906 -5.21875 -14.9375 -5.96875 -15.21875 C -6.71875 -15.507812 -7.335938 -16.113281 -7.828125 -17.03125 C -8.296875 -17.925781 -8.414062 -18.769531 -8.1875 -19.5625 C -7.96875 -20.363281 -7.445312 -20.972656 -6.625 -21.390625 L 3.125 -26.3125 C 5.0625 -27.289062 6.488281 -26.875 7.40625 -25.0625 C 7.8125 -24.257812 7.898438 -23.492188 7.671875 -22.765625 C 7.453125 -22.035156 6.84375 -21.421875 5.84375 -20.921875 L 0.234375 -18.078125 C -0.441406 -17.742188 -0.582031 -17.1875 -0.1875 -16.40625 L 0.84375 -14.359375 C 1.65625 -15.003906 2.484375 -15.71875 3.328125 -16.5 C 4.179688 -17.28125 5.050781 -17.890625 5.9375 -18.328125 C 6.78125 -18.753906 7.507812 -18.890625 8.125 -18.734375 C 8.738281 -18.578125 9.207031 -18.1875 9.53125 -17.5625 C 9.851562 -16.90625 9.894531 -16.28125 9.65625 -15.6875 C 9.414062 -15.101562 8.878906 -14.585938 8.046875 -14.140625 C 7.171875 -13.679688 6.164062 -13.332031 5.03125 -13.09375 C 3.90625 -12.863281 2.832031 -12.625 1.8125 -12.375 L 3.609375 -8.8125 C 3.785156 -8.46875 4.003906 -8.273438 4.265625 -8.234375 C 4.523438 -8.191406 4.804688 -8.398438 5.109375 -8.859375 C 5.742188 -9.828125 6.414062 -10.691406 7.125 -11.453125 C 7.832031 -12.210938 8.597656 -12.800781 9.421875 -13.21875 C 10.609375 -13.8125 11.660156 -13.953125 12.578125 -13.640625 C 13.492188 -13.328125 14.203125 -12.675781 14.703125 -11.6875 C 15.242188 -10.613281 15.335938 -9.625 14.984375 -8.71875 C 14.628906 -7.820312 13.738281 -7.015625 12.3125 -6.296875 Z M 7.453125 -3.84375 "/></g></g></g><g fill="#ffffff" fill-opacity="1"><g transform="translate(151.875598, 94.660783)"><g><path d="M -0.46875 -15.8125 C -1.445312 -15.550781 -2.320312 -15.617188 -3.09375 -16.015625 C -3.863281 -16.421875 -4.382812 -17.125 -4.65625 -18.125 C -4.925781 -19.09375 -4.863281 -19.953125 -4.46875 -20.703125 C -4.082031 -21.453125 -3.335938 -21.972656 -2.234375 -22.265625 L 10.40625 -25.71875 C 11.5 -26.019531 12.40625 -25.945312 13.125 -25.5 C 13.84375 -25.050781 14.335938 -24.34375 14.609375 -23.375 C 14.878906 -22.375 14.785156 -21.503906 14.328125 -20.765625 C 13.867188 -20.035156 13.148438 -19.535156 12.171875 -19.265625 C 11.503906 -19.085938 10.945312 -19.015625 10.5 -19.046875 C 10.0625 -19.085938 9.6875 -19.175781 9.375 -19.3125 C 9.070312 -19.457031 8.785156 -19.566406 8.515625 -19.640625 C 8.242188 -19.722656 7.929688 -19.71875 7.578125 -19.625 L 7.4375 -19.015625 C 7.570312 -18.859375 7.78125 -18.644531 8.0625 -18.375 C 8.34375 -18.113281 8.65625 -17.707031 9 -17.15625 C 9.34375 -16.601562 9.648438 -15.820312 9.921875 -14.8125 L 12.234375 -6.328125 C 12.453125 -5.523438 12.332031 -4.78125 11.875 -4.09375 C 11.425781 -3.40625 10.773438 -2.941406 9.921875 -2.703125 C 9.035156 -2.460938 8.21875 -2.523438 7.46875 -2.890625 C 6.726562 -3.253906 6.25 -3.835938 6.03125 -4.640625 L 3.71875 -13.125 C 3.445312 -14.132812 3.316406 -14.960938 3.328125 -15.609375 C 3.335938 -16.253906 3.398438 -16.765625 3.515625 -17.140625 C 3.640625 -17.523438 3.71875 -17.816406 3.75 -18.015625 L 3.328125 -18.46875 C 2.972656 -18.375 2.695312 -18.21875 2.5 -18 C 2.300781 -17.789062 2.097656 -17.546875 1.890625 -17.265625 C 1.691406 -16.992188 1.421875 -16.734375 1.078125 -16.484375 C 0.734375 -16.234375 0.21875 -16.007812 -0.46875 -15.8125 Z M -0.46875 -15.8125 "/></g></g></g><g fill="#ffffff" fill-opacity="1"><g transform="translate(172.041854, 89.244499)"><g><path d="M 10.328125 -0.53125 C 9.191406 -0.46875 8.046875 -0.515625 6.890625 -0.671875 C 5.734375 -0.835938 4.660156 -1.117188 3.671875 -1.515625 C 2.679688 -1.910156 1.875 -2.421875 1.25 -3.046875 C 0.625 -3.671875 0.28125 -4.414062 0.21875 -5.28125 C 0.15625 -6.394531 0.457031 -7.304688 1.125 -8.015625 C 1.789062 -8.722656 2.601562 -9.085938 3.5625 -9.109375 C 4.300781 -9.128906 5.054688 -9.015625 5.828125 -8.765625 C 6.597656 -8.523438 7.378906 -8.285156 8.171875 -8.046875 C 8.972656 -7.804688 9.765625 -7.710938 10.546875 -7.765625 C 11.335938 -7.816406 11.878906 -7.953125 12.171875 -8.171875 C 12.460938 -8.390625 12.597656 -8.671875 12.578125 -9.015625 C 12.546875 -9.421875 12.3125 -9.742188 11.875 -9.984375 C 11.4375 -10.222656 10.890625 -10.394531 10.234375 -10.5 L 8.71875 -10.78125 C 7.15625 -11.050781 5.753906 -11.375 4.515625 -11.75 C 3.285156 -12.125 2.296875 -12.664062 1.546875 -13.375 C 0.804688 -14.09375 0.394531 -15.09375 0.3125 -16.375 C 0.226562 -17.769531 0.546875 -18.929688 1.265625 -19.859375 C 1.984375 -20.785156 2.984375 -21.488281 4.265625 -21.96875 C 5.554688 -22.457031 7.007812 -22.75 8.625 -22.84375 C 10.28125 -22.945312 11.742188 -22.863281 13.015625 -22.59375 C 14.296875 -22.332031 15.304688 -21.898438 16.046875 -21.296875 C 16.785156 -20.703125 17.179688 -19.9375 17.234375 -19 C 17.296875 -18.007812 17.070312 -17.21875 16.5625 -16.625 C 16.0625 -16.03125 15.367188 -15.707031 14.484375 -15.65625 C 13.890625 -15.625 13.269531 -15.6875 12.625 -15.84375 C 11.976562 -16.007812 11.300781 -16.164062 10.59375 -16.3125 C 9.882812 -16.46875 9.132812 -16.519531 8.34375 -16.46875 C 7.632812 -16.425781 7.101562 -16.285156 6.75 -16.046875 C 6.394531 -15.816406 6.226562 -15.53125 6.25 -15.1875 C 6.28125 -14.757812 6.546875 -14.457031 7.046875 -14.28125 C 7.546875 -14.113281 8.363281 -13.921875 9.5 -13.703125 L 11.21875 -13.40625 C 12.625 -13.15625 13.867188 -12.816406 14.953125 -12.390625 C 16.035156 -11.972656 16.894531 -11.382812 17.53125 -10.625 C 18.164062 -9.875 18.523438 -8.863281 18.609375 -7.59375 C 18.703125 -6.0625 18.410156 -4.789062 17.734375 -3.78125 C 17.066406 -2.78125 16.097656 -2.015625 14.828125 -1.484375 C 13.554688 -0.960938 12.054688 -0.644531 10.328125 -0.53125 Z M 10.328125 -0.53125 "/></g></g></g><g fill="#ffffff" fill-opacity="1"><g transform="translate(192.54523, 88.469765)"><g><path d="M 4.5 1 C 3.300781 0.882812 2.398438 0.476562 1.796875 -0.21875 C 1.191406 -0.914062 0.9375 -1.785156 1.03125 -2.828125 C 1.132812 -3.898438 1.554688 -4.734375 2.296875 -5.328125 C 3.046875 -5.929688 4 -6.179688 5.15625 -6.078125 C 6.28125 -5.972656 7.148438 -5.5625 7.765625 -4.84375 C 8.378906 -4.132812 8.640625 -3.242188 8.546875 -2.171875 C 8.441406 -1.128906 8.035156 -0.3125 7.328125 0.28125 C 6.628906 0.875 5.6875 1.113281 4.5 1 Z M 4.5 1 "/></g></g></g><g fill="#ffffff" fill-opacity="1"><g transform="translate(202.50023, 88.994881)"><g><path d="M 3.953125 1.015625 C 2.960938 0.765625 2.289062 0.269531 1.9375 -0.46875 C 1.582031 -1.21875 1.535156 -2.101562 1.796875 -3.125 L 5.359375 -16.9375 C 5.628906 -17.957031 6.035156 -18.734375 6.578125 -19.265625 C 7.128906 -19.804688 7.753906 -20.144531 8.453125 -20.28125 C 9.148438 -20.414062 9.859375 -20.390625 10.578125 -20.203125 C 11.660156 -19.921875 12.5 -19.398438 13.09375 -18.640625 C 13.695312 -17.878906 14.019531 -16.726562 14.0625 -15.1875 L 14.4375 -3.5 L 14.90625 -3.390625 L 17.8125 -14.6875 C 18.082031 -15.726562 18.5625 -16.476562 19.25 -16.9375 C 19.9375 -17.40625 20.769531 -17.507812 21.75 -17.25 C 22.769531 -16.988281 23.453125 -16.492188 23.796875 -15.765625 C 24.148438 -15.035156 24.191406 -14.148438 23.921875 -13.109375 L 20.5 0.203125 C 20.070312 1.847656 19.390625 2.96875 18.453125 3.5625 C 17.523438 4.164062 16.398438 4.296875 15.078125 3.953125 C 13.753906 3.609375 12.804688 2.984375 12.234375 2.078125 C 11.671875 1.179688 11.367188 0.00390625 11.328125 -1.453125 L 11.09375 -9.15625 C 11.101562 -9.375 11.078125 -9.578125 11.015625 -9.765625 C 10.953125 -9.960938 10.828125 -10.085938 10.640625 -10.140625 C 10.429688 -10.191406 10.265625 -10.144531 10.140625 -10 C 10.015625 -9.851562 9.925781 -9.675781 9.875 -9.46875 L 7.828125 -1.5625 C 7.566406 -0.539062 7.101562 0.207031 6.4375 0.6875 C 5.78125 1.164062 4.953125 1.273438 3.953125 1.015625 Z M 3.953125 1.015625 "/></g></g></g><g fill="#ffffff" fill-opacity="1"><g transform="translate(223.028581, 94.443476)"><g><path d="M 7.5625 3.625 C 6.675781 3.1875 5.867188 2.6875 5.140625 2.125 C 4.410156 1.570312 3.851562 0.914062 3.46875 0.15625 C 3.082031 -0.601562 2.925781 -1.515625 3 -2.578125 C 3.082031 -3.640625 3.472656 -4.890625 4.171875 -6.328125 C 4.804688 -7.617188 5.519531 -8.640625 6.3125 -9.390625 C 7.113281 -10.148438 7.890625 -10.6875 8.640625 -11 C 9.398438 -11.3125 10.007812 -11.429688 10.46875 -11.359375 L 10.578125 -11.953125 L 10.125 -12.1875 C 9.289062 -12.59375 8.757812 -13.175781 8.53125 -13.9375 C 8.3125 -14.707031 8.421875 -15.566406 8.859375 -16.515625 C 9.296875 -17.429688 9.894531 -18.039062 10.65625 -18.34375 C 11.425781 -18.644531 12.226562 -18.59375 13.0625 -18.1875 L 22.859375 -13.390625 C 24.804688 -12.429688 25.332031 -11.039062 24.4375 -9.21875 C 24.039062 -8.40625 23.488281 -7.867188 22.78125 -7.609375 C 22.070312 -7.359375 21.210938 -7.476562 20.203125 -7.96875 L 14.5625 -10.734375 C 13.882812 -11.054688 13.351562 -10.820312 12.96875 -10.03125 L 11.96875 -7.984375 C 12.96875 -7.742188 14.03125 -7.515625 15.15625 -7.296875 C 16.289062 -7.085938 17.304688 -6.765625 18.203125 -6.328125 C 19.046875 -5.910156 19.59375 -5.410156 19.84375 -4.828125 C 20.09375 -4.242188 20.0625 -3.632812 19.75 -3 C 19.425781 -2.34375 18.957031 -1.929688 18.34375 -1.765625 C 17.726562 -1.597656 16.992188 -1.710938 16.140625 -2.109375 C 15.234375 -2.535156 14.347656 -3.128906 13.484375 -3.890625 C 12.617188 -4.648438 11.78125 -5.351562 10.96875 -6 L 9.203125 -2.421875 C 9.035156 -2.078125 9.015625 -1.789062 9.140625 -1.5625 C 9.265625 -1.332031 9.59375 -1.238281 10.125 -1.28125 C 11.289062 -1.351562 12.390625 -1.335938 13.421875 -1.234375 C 14.453125 -1.128906 15.382812 -0.875 16.21875 -0.46875 C 17.40625 0.113281 18.148438 0.863281 18.453125 1.78125 C 18.765625 2.707031 18.675781 3.671875 18.1875 4.671875 C 17.65625 5.742188 16.925781 6.410156 16 6.671875 C 15.070312 6.941406 13.890625 6.722656 12.453125 6.015625 Z M 7.5625 3.625 "/></g></g></g><g fill="#ffffff" fill-opacity="1"><g transform="translate(240.194414, 102.788843)"><g><path d="M 12.328125 -9.921875 C 11.523438 -10.546875 11.050781 -11.285156 10.90625 -12.140625 C 10.757812 -12.992188 11.003906 -13.828125 11.640625 -14.640625 C 12.253906 -15.441406 12.972656 -15.910156 13.796875 -16.046875 C 14.628906 -16.191406 15.5 -15.914062 16.40625 -15.21875 L 26.78125 -7.21875 C 27.6875 -6.53125 28.179688 -5.765625 28.265625 -4.921875 C 28.347656 -4.078125 28.082031 -3.253906 27.46875 -2.453125 C 26.832031 -1.640625 26.078125 -1.191406 25.203125 -1.109375 C 24.335938 -1.035156 23.503906 -1.304688 22.703125 -1.921875 C 22.160156 -2.347656 21.769531 -2.742188 21.53125 -3.109375 C 21.300781 -3.484375 21.144531 -3.835938 21.0625 -4.171875 C 20.988281 -4.503906 20.898438 -4.804688 20.796875 -5.078125 C 20.703125 -5.347656 20.507812 -5.59375 20.21875 -5.8125 L 19.65625 -5.546875 C 19.601562 -5.347656 19.554688 -5.050781 19.515625 -4.65625 C 19.472656 -4.269531 19.335938 -3.773438 19.109375 -3.171875 C 18.878906 -2.578125 18.441406 -1.863281 17.796875 -1.03125 L 12.4375 5.921875 C 11.925781 6.585938 11.257812 6.945312 10.4375 7 C 9.613281 7.050781 8.847656 6.8125 8.140625 6.28125 C 7.421875 5.71875 6.976562 5.03125 6.8125 4.21875 C 6.65625 3.40625 6.832031 2.664062 7.34375 2 L 12.703125 -4.953125 C 13.347656 -5.785156 13.929688 -6.390625 14.453125 -6.765625 C 14.972656 -7.140625 15.414062 -7.394531 15.78125 -7.53125 C 16.15625 -7.664062 16.4375 -7.78125 16.625 -7.875 L 16.734375 -8.5 C 16.441406 -8.71875 16.148438 -8.84375 15.859375 -8.875 C 15.578125 -8.90625 15.265625 -8.914062 14.921875 -8.90625 C 14.578125 -8.894531 14.195312 -8.953125 13.78125 -9.078125 C 13.375 -9.203125 12.890625 -9.484375 12.328125 -9.921875 Z M 12.328125 -9.921875 "/></g></g></g><g clip-path="url(#0a1aca14ec)"><path fill="#000000" d="M 208.421875 131.625 C 208.179688 131.628906 207.933594 131.640625 207.6875 131.65625 C 197.867188 133.351562 192.464844 143.738281 191.683594 152.894531 C 190.539062 161.207031 194.203125 171.886719 203.328125 173.746094 C 204.648438 174 206.023438 173.882812 207.320312 173.535156 C 218.304688 169.851562 223.222656 156.835938 221.632812 146.058594 C 221.171875 139.097656 215.925781 131.527344 208.421875 131.625 Z M 166.785156 132.070312 C 160.679688 132.21875 155.921875 138.414062 154.957031 144.234375 C 152.914062 155.769531 158.164062 170.101562 170.179688 173.75 C 171.304688 173.992188 172.46875 174.019531 173.605469 173.84375 C 181.726562 172.488281 185.167969 163.382812 184.828125 156.03125 C 184.585938 146.335938 179.546875 135.121094 169.476562 132.394531 C 168.554688 132.152344 167.660156 132.050781 166.785156 132.070312 Z M 235.03125 164.828125 C 224.46875 165.460938 217.226562 176.003906 216.191406 185.84375 C 214.796875 192.941406 218.578125 202.4375 226.679688 203.003906 C 237.972656 202.863281 245.675781 190.796875 245.996094 180.414062 C 246.710938 173.546875 242.667969 165.210938 235.03125 164.828125 Z M 142.570312 167.167969 C 138.074219 167.128906 133.652344 169.820312 132.1875 174.390625 C 128.265625 186.613281 136.136719 202.089844 149.078125 204.660156 C 154.480469 205.582031 159.226562 201.433594 160.566406 196.441406 C 163.40625 185.765625 157.578125 173.371094 147.707031 168.523438 C 146.101562 167.621094 144.328125 167.1875 142.570312 167.171875 Z M 189.925781 189.082031 C 181.117188 189.101562 172.167969 193.574219 166.460938 200.226562 C 160.300781 207.984375 155.253906 217.011719 153.277344 226.804688 C 150.878906 233.851562 156.316406 241.960938 163.847656 242.011719 C 172.910156 242.261719 180.699219 236.039062 189.710938 235.574219 C 197.359375 234.410156 204.203125 238.386719 211.078125 240.992188 C 216.933594 243.492188 225.019531 242.535156 228.007812 236.234375 C 230.359375 229.816406 226.898438 222.96875 224.03125 217.269531 C 218.1875 208.015625 211.925781 198.289062 202.339844 192.507812 C 198.5 190.128906 194.230469 189.074219 189.925781 189.082031 Z M 189.925781 189.082031 " fill-opacity="1" fill-rule="nonzero"/></g><g clip-path="url(#050820d7fa)"><g clip-path="url(#30119d3cd7)"><path fill="#ffffff" d="M 178.722656 206.402344 L 201.441406 206.402344 L 201.441406 239.503906 L 178.722656 239.503906 Z M 178.722656 206.402344 " fill-opacity="1" fill-rule="nonzero"/></g></g><g clip-path="url(#e3c64b8c88)"><g clip-path="url(#2c9d7c0ba4)"><path fill="#fead31" d="M 193.339844 224.613281 L 197.472656 224.613281 L 197.472656 228.75 L 193.339844 228.75 Z M 193.339844 224.613281 " fill-opacity="1" fill-rule="nonzero"/></g></g><g clip-path="url(#cd44004e0f)"><g clip-path="url(#952b3364f6)"><path fill="#ffffff" d="M 288.078125 189.582031 L 302.183594 189.582031 L 302.183594 203.6875 L 288.078125 203.6875 Z M 288.078125 189.582031 " fill-opacity="1" fill-rule="nonzero"/></g></g></svg>